<svg id="tick-circle-svgrepo-com" xmlns="http://www.w3.org/2000/svg" width="21.427" height="21.427" viewBox="0 0 21.427 21.427">
  <path id="Path_11063" data-name="Path 11063" d="M16.154,9.421a.824.824,0,0,1,0,1.165l-4.4,4.4a.824.824,0,0,1-1.166,0l-2.2-2.2a.824.824,0,1,1,1.165-1.165l1.615,1.615,3.812-3.812A.824.824,0,0,1,16.154,9.421Z" transform="translate(-1.561 -1.488)" fill="#20af4b" fill-rule="evenodd"/>
  <path id="Path_11064" data-name="Path 11064" d="M12.713,3.648a9.065,9.065,0,1,0,9.065,9.065A9.065,9.065,0,0,0,12.713,3.648ZM2,12.713A10.713,10.713,0,1,1,12.713,23.427,10.713,10.713,0,0,1,2,12.713Z" transform="translate(-2 -2)" fill="#20af4b" fill-rule="evenodd"/>
</svg>
