<svg xmlns="http://www.w3.org/2000/svg" width="19.429" height="19" viewBox="0 0 19.429 19">
  <path id="Icon_material-notifications-active" data-name="Icon material-notifications-active" d="M8.453,5.289,7.059,3.9a10.158,10.158,0,0,0-4.014,7.649H4.994A8.229,8.229,0,0,1,8.453,5.289Zm12.072,6.255h1.949A10.22,10.22,0,0,0,18.459,3.9L17.076,5.289a8.277,8.277,0,0,1,3.449,6.255Zm-1.919.487c0-2.991-1.6-5.5-4.385-6.158V5.212a1.462,1.462,0,1,0-2.923,0v.663c-2.8.663-4.385,3.157-4.385,6.158V16.9L4.964,18.853v.974h15.59v-.974L18.606,16.9ZM12.759,22.75a1.707,1.707,0,0,0,.39-.039,1.977,1.977,0,0,0,1.4-1.15,1.956,1.956,0,0,0,.146-.76H10.8A1.963,1.963,0,0,0,12.759,22.75Z" transform="translate(-3.045 -3.75)" fill="#fff"/>
</svg>
