<svg xmlns="http://www.w3.org/2000/svg" width="30.06" height="26.302" viewBox="0 0 30.06 26.302">
  <path id="Icon_awesome-archive" data-name="Icon awesome-archive" d="M1.879,26.674a1.877,1.877,0,0,0,1.879,1.879H26.3a1.877,1.877,0,0,0,1.879-1.879V9.765H1.879Zm9.394-12.447a.707.707,0,0,1,.7-.7h6.106a.707.707,0,0,1,.7.7v.47a.707.707,0,0,1-.7.7H11.977a.707.707,0,0,1-.7-.7ZM28.181,2.25H1.879A1.877,1.877,0,0,0,0,4.129V6.947a.942.942,0,0,0,.939.939H29.121a.942.942,0,0,0,.939-.939V4.129A1.877,1.877,0,0,0,28.181,2.25Z" transform="translate(0 -2.25)" fill="#f60"/>
</svg>
