<svg xmlns="http://www.w3.org/2000/svg" width="20.225" height="20.235" viewBox="0 0 20.225 20.235">
  <g id="ffff748a7ac35759d9fef57a34fd4a21" transform="translate(-10 -9.8)" opacity="0.5">
    <path id="Path_11943" data-name="Path 11943" d="M224.072,389.8h6.938a2.281,2.281,0,0,1,2.272,2.274h0a2.282,2.282,0,0,1-2.272,2.274h-6.938a2.281,2.281,0,0,1-2.272-2.274h0a2.282,2.282,0,0,1,2.272-2.274Z" transform="translate(-207.429 -372.158)"/>
    <path id="Path_11944" data-name="Path 11944" d="M20.112,9.8A10.118,10.118,0,1,0,30.225,19.916,10.11,10.11,0,0,0,20.112,9.8Zm0,18.615a8.493,8.493,0,1,1,8.494-8.5A8.494,8.494,0,0,1,20.112,28.415Z"/>
  </g>
</svg>
