<svg xmlns="http://www.w3.org/2000/svg" width="14.654" height="15.426" viewBox="0 0 14.654 15.426">
  <g id="calendar-svgrepo-com_6_" data-name="calendar-svgrepo-com (6)" transform="translate(-1.5)" opacity="0.5">
    <path id="Path_11939" data-name="Path 11939" d="M37.236,48.005a.258.258,0,0,0-.3.2,2.818,2.818,0,0,1-2.769,2.365,2.965,2.965,0,0,1-2.815-2.057h1.208V48H30.5v2.057h.514v-.989a3.483,3.483,0,0,0,3.149,2.018,3.321,3.321,0,0,0,3.273-2.777A.257.257,0,0,0,37.236,48.005Z" transform="translate(-21.544 -35.66)" fill="#0015ff"/>
    <path id="Path_11940" data-name="Path 11940" d="M37.927,33.771v1.108A3.374,3.374,0,0,0,34.906,33a3.532,3.532,0,0,0-3.4,2.5.257.257,0,1,0,.494.143,3.054,3.054,0,0,1,2.9-2.128,2.874,2.874,0,0,1,2.656,1.8H36.385v.514h2.057V33.771Z" transform="translate(-22.287 -24.516)" fill="#0015ff"/>
    <path id="Path_11941" data-name="Path 11941" d="M15.956,23.828H18.27V21H8.5v7.456h5.142V23.828h2.314Zm0-2.314h1.8v1.8h-1.8Zm-4.628,0h1.8v1.8h-1.8Zm-2.314,0h1.8v1.8h-1.8Zm0,2.314h1.8v1.8h-1.8Zm1.8,4.113h-1.8v-1.8h1.8Zm2.314,0h-1.8v-1.8h1.8Zm0-2.314h-1.8v-1.8h1.8Zm.514-2.314v-1.8h1.8v1.8Z" transform="translate(-5.2 -15.601)" fill="#0015ff"/>
    <path id="Path_11942" data-name="Path 11942" d="M7.67,14.14H2.014V4.113h12.34V7.456a.257.257,0,1,0,.514,0V1.285a.257.257,0,0,0-.257-.257H13.326V.257A.257.257,0,0,0,13.069,0h-1.8a.257.257,0,0,0-.257.257v.771H5.356V.257A.257.257,0,0,0,5.1,0H3.3a.257.257,0,0,0-.257.257v.771H1.757a.257.257,0,0,0-.257.257V14.4a.257.257,0,0,0,.257.257H7.67a.257.257,0,1,0,0-.514ZM11.527.514h1.285V2.057H11.527V.514Zm-7.97,0H4.842V2.057H3.557V.514ZM2.014,1.543H3.043v.771a.257.257,0,0,0,.257.257H5.1a.257.257,0,0,0,.257-.257V1.543h5.656v.771a.257.257,0,0,0,.257.257h1.8a.257.257,0,0,0,.257-.257V1.543h1.028V3.6H2.014Z" fill="#0015ff"/>
  </g>
</svg>
