<svg xmlns="http://www.w3.org/2000/svg" width="7.733" height="8.837" viewBox="0 0 7.733 8.837">
  <path id="Icon_awesome-calendar-alt" data-name="Icon awesome-calendar-alt" d="M0,8.009a.829.829,0,0,0,.828.828H6.9a.829.829,0,0,0,.828-.828V3.314H0ZM5.523,4.626a.208.208,0,0,1,.207-.207h.69a.208.208,0,0,1,.207.207v.69a.208.208,0,0,1-.207.207H5.73a.208.208,0,0,1-.207-.207Zm0,2.209a.208.208,0,0,1,.207-.207h.69a.208.208,0,0,1,.207.207v.69a.208.208,0,0,1-.207.207H5.73a.208.208,0,0,1-.207-.207ZM3.314,4.626a.208.208,0,0,1,.207-.207h.69a.208.208,0,0,1,.207.207v.69a.208.208,0,0,1-.207.207h-.69a.208.208,0,0,1-.207-.207Zm0,2.209a.208.208,0,0,1,.207-.207h.69a.208.208,0,0,1,.207.207v.69a.208.208,0,0,1-.207.207h-.69a.208.208,0,0,1-.207-.207ZM1.1,4.626a.208.208,0,0,1,.207-.207H2a.208.208,0,0,1,.207.207v.69A.208.208,0,0,1,2,5.523h-.69A.208.208,0,0,1,1.1,5.316Zm0,2.209a.208.208,0,0,1,.207-.207H2a.208.208,0,0,1,.207.207v.69A.208.208,0,0,1,2,7.733h-.69A.208.208,0,0,1,1.1,7.526ZM6.9,1.1H6.076V.276A.277.277,0,0,0,5.8,0H5.247a.277.277,0,0,0-.276.276V1.1H2.762V.276A.277.277,0,0,0,2.485,0H1.933a.277.277,0,0,0-.276.276V1.1H.828A.829.829,0,0,0,0,1.933v.828H7.733V1.933A.829.829,0,0,0,6.9,1.1Z" fill="#7f7b78"/>
</svg>
