<svg xmlns="http://www.w3.org/2000/svg" width="19.311" height="19.311" viewBox="0 0 19.311 19.311">
  <g id="Icon_ionic-ios-close-circle-outline" data-name="Icon ionic-ios-close-circle-outline" transform="translate(-3.375 -3.375)" opacity="0.5">
    <path id="Path_11933" data-name="Path 11933" d="M19.579,18.528l-2.446-2.446,2.446-2.446a.742.742,0,0,0-1.049-1.049l-2.446,2.446-2.446-2.446a.742.742,0,1,0-1.049,1.049l2.446,2.446-2.446,2.446a.717.717,0,0,0,0,1.049.737.737,0,0,0,1.049,0l2.446-2.446,2.446,2.446a.745.745,0,0,0,1.049,0A.737.737,0,0,0,19.579,18.528Z" transform="translate(-3.053 -3.051)"/>
    <path id="Path_11934" data-name="Path 11934" d="M13.03,4.675A8.352,8.352,0,1,1,7.121,7.121,8.3,8.3,0,0,1,13.03,4.675m0-1.3a9.655,9.655,0,1,0,9.655,9.655A9.654,9.654,0,0,0,13.03,3.375Z"/>
  </g>
</svg>
