<svg xmlns="http://www.w3.org/2000/svg" width="22.085" height="20.564" viewBox="0 0 22.085 20.564">
  <g id="event-date-and-time-symbol-svgrepo-com" opacity="0.5">
    <g id="Group_9480" data-name="Group 9480" transform="translate(0 0)">
      <g id="Group_9452" data-name="Group 9452" transform="translate(12.543 11.022)">
        <g id="Group_9451" data-name="Group 9451">
          <g id="Group_9450" data-name="Group 9450">
            <path id="Path_3043" data-name="Path 3043" d="M352.352,326.519a4.771,4.771,0,1,0,4.77,4.772A4.772,4.772,0,0,0,352.352,326.519Zm.306,8.3v-.412a.307.307,0,1,0-.614,0v.412a3.544,3.544,0,0,1-3.22-3.22h.413a.307.307,0,0,0,0-.614h-.413a3.545,3.545,0,0,1,3.22-3.22v.413a.307.307,0,1,0,.614,0v-.413a3.543,3.543,0,0,1,3.22,3.22h-.413a.307.307,0,1,0,0,.614h.413A3.543,3.543,0,0,1,352.658,334.817Z" transform="translate(-347.58 -326.519)" fill="#0015ff"/>
          </g>
        </g>
      </g>
      <g id="Group_9455" data-name="Group 9455" transform="translate(15.457 13.367)">
        <g id="Group_9454" data-name="Group 9454" transform="translate(0 0)">
          <g id="Group_9453" data-name="Group 9453">
            <path id="Path_3044" data-name="Path 3044" d="M431.956,393.462h-1.107a.816.816,0,0,0-.671-.354h-.014l-1.009-1.42a.461.461,0,1,0-.75.535l1.009,1.42a.827.827,0,0,0-.051.279.814.814,0,0,0,1.485.46h1.107a.461.461,0,0,0,0-.922Z" transform="translate(-428.32 -391.496)" fill="#0015ff"/>
          </g>
        </g>
      </g>
      <g id="Group_9458" data-name="Group 9458" transform="translate(3.082 0)">
        <g id="Group_9457" data-name="Group 9457">
          <g id="Group_9456" data-name="Group 9456">
            <path id="Path_3045" data-name="Path 3045" d="M86.922,27.377a1.51,1.51,0,0,0,1.511-1.51V22.589a1.51,1.51,0,1,0-3.02,0v3.277A1.51,1.51,0,0,0,86.922,27.377Z" transform="translate(-85.412 -21.079)" fill="#0015ff"/>
          </g>
        </g>
      </g>
      <g id="Group_9461" data-name="Group 9461" transform="translate(12.332 0)">
        <g id="Group_9460" data-name="Group 9460">
          <g id="Group_9459" data-name="Group 9459">
            <path id="Path_3046" data-name="Path 3046" d="M343.256,27.377a1.51,1.51,0,0,0,1.511-1.51V22.589a1.51,1.51,0,1,0-3.02,0v3.277A1.51,1.51,0,0,0,343.256,27.377Z" transform="translate(-341.746 -21.079)" fill="#0015ff"/>
          </g>
        </g>
      </g>
      <g id="Group_9464" data-name="Group 9464" transform="translate(3.629 9.711)">
        <g id="Group_9463" data-name="Group 9463">
          <g id="Group_9462" data-name="Group 9462">
            <path id="Path_3047" data-name="Path 3047" d="M103.572,290.947a.78.78,0,0,0-.781-.78h-1.447a.781.781,0,0,0-.781.78v1.447a.782.782,0,0,0,.781.782h1.447a.781.781,0,0,0,.781-.782Z" transform="translate(-100.563 -290.167)" fill="#0015ff"/>
          </g>
        </g>
      </g>
      <g id="Group_9467" data-name="Group 9467" transform="translate(7.715 9.712)">
        <g id="Group_9466" data-name="Group 9466">
          <g id="Group_9465" data-name="Group 9465">
            <path id="Path_3048" data-name="Path 3048" d="M216.785,290.983a.78.78,0,0,0-.78-.78h-1.448a.78.78,0,0,0-.78.78v1.447a.781.781,0,0,0,.78.781h1.448a.781.781,0,0,0,.78-.781Z" transform="translate(-213.777 -290.203)" fill="#0015ff"/>
          </g>
        </g>
      </g>
      <g id="Group_9470" data-name="Group 9470" transform="translate(11.797 9.711)">
        <g id="Group_9469" data-name="Group 9469">
          <g id="Group_9468" data-name="Group 9468">
            <path id="Path_3049" data-name="Path 3049" d="M327.675,290.167a.781.781,0,0,0-.781.78v1.447a.771.771,0,0,0,.665.757,5.8,5.8,0,0,1,2.343-2.08v-.123a.78.78,0,0,0-.781-.78Z" transform="translate(-326.894 -290.167)" fill="#0015ff"/>
          </g>
        </g>
      </g>
      <g id="Group_9473" data-name="Group 9473" transform="translate(3.629 13.632)">
        <g id="Group_9472" data-name="Group 9472">
          <g id="Group_9471" data-name="Group 9471">
            <path id="Path_3050" data-name="Path 3050" d="M101.352,398.833a.781.781,0,0,0-.781.78v1.447a.781.781,0,0,0,.781.78H102.8a.779.779,0,0,0,.78-.78v-1.447a.779.779,0,0,0-.78-.78Z" transform="translate(-100.571 -398.833)" fill="#0015ff"/>
          </g>
        </g>
      </g>
      <g id="Group_9476" data-name="Group 9476" transform="translate(7.714 13.633)">
        <g id="Group_9475" data-name="Group 9475" transform="translate(0 0)">
          <g id="Group_9474" data-name="Group 9474">
            <path id="Path_3051" data-name="Path 3051" d="M216,398.851h-1.447a.78.78,0,0,0-.78.781v1.446a.78.78,0,0,0,.78.78H216a.78.78,0,0,0,.78-.78v-1.446A.781.781,0,0,0,216,398.851Z" transform="translate(-213.769 -398.851)" fill="#0015ff"/>
          </g>
        </g>
      </g>
      <g id="Group_9479" data-name="Group 9479" transform="translate(0 2.928)">
        <g id="Group_9478" data-name="Group 9478">
          <g id="Group_9477" data-name="Group 9477">
            <path id="Path_3052" data-name="Path 3052" d="M12.051,117.41H4.708a2.3,2.3,0,0,1-2.292-2.291v-7.669h13.6v2.007a5.629,5.629,0,0,1,2.415-.04V102.2H16.259v1.86a2.416,2.416,0,0,1-4.833,0V102.2H7.009v1.86a2.416,2.416,0,0,1-4.833,0V102.2H0v12.915a4.709,4.709,0,0,0,4.708,4.708h9.018c.107,0,.213-.009.318-.016A5.8,5.8,0,0,1,12.051,117.41Z" transform="translate(0 -102.204)" fill="#0015ff"/>
          </g>
        </g>
      </g>
    </g>
  </g>
</svg>
