<svg id="Icon_ionic-ios-close-circle-outline" data-name="Icon ionic-ios-close-circle-outline" xmlns="http://www.w3.org/2000/svg" width="21.427" height="21.427" viewBox="0 0 21.427 21.427">
  <path id="Path_11065" data-name="Path 11065" d="M20.37,19.2,17.655,16.49l2.714-2.714a.823.823,0,0,0-1.164-1.164l-2.714,2.714-2.714-2.714a.823.823,0,1,0-1.164,1.164l2.714,2.714L12.613,19.2a.8.8,0,0,0,0,1.164.818.818,0,0,0,1.164,0l2.714-2.714,2.714,2.714a.827.827,0,0,0,1.164,0A.818.818,0,0,0,20.37,19.2Z" transform="translate(-5.778 -5.777)" fill="#f77"/>
  <path id="Path_11066" data-name="Path 11066" d="M14.088,4.817A9.268,9.268,0,1,1,7.532,7.532a9.21,9.21,0,0,1,6.557-2.714m0-1.442A10.713,10.713,0,1,0,24.8,14.088,10.712,10.712,0,0,0,14.088,3.375Z" transform="translate(-3.375 -3.375)" fill="#f77"/>
</svg>
