<svg xmlns="http://www.w3.org/2000/svg" width="15.524" height="10.479" viewBox="0 0 15.524 10.479">
  <path id="Icon_zocial-email" data-name="Icon zocial-email" d="M.072,13.619V5q0-.015.045-.284L5.192,9.053.132,13.918a1.269,1.269,0,0,1-.06-.3ZM.746,4.113A.645.645,0,0,1,1,4.068H14.668a.848.848,0,0,1,.269.045L9.847,8.469l-.674.539L7.841,10.1,6.509,9.008l-.674-.539ZM.761,14.5l5.1-4.9,1.976,1.6,1.976-1.6,5.1,4.9a.719.719,0,0,1-.254.045H1a.678.678,0,0,1-.24-.045Zm9.73-5.449,5.06-4.341A.894.894,0,0,1,15.6,5v8.623a1.147,1.147,0,0,1-.045.3Z" transform="translate(-0.072 -4.068)" opacity="0.5"/>
</svg>
