<svg xmlns="http://www.w3.org/2000/svg" width="17.775" height="11.311" viewBox="0 0 17.775 11.311">
  <path id="Icon_material-group" data-name="Icon material-group" d="M13.619,12.348A2.424,2.424,0,1,0,11.2,9.924,2.414,2.414,0,0,0,13.619,12.348Zm-6.464,0A2.424,2.424,0,1,0,4.732,9.924,2.414,2.414,0,0,0,7.156,12.348Zm0,1.616c-1.883,0-5.656.945-5.656,2.828v2.02H12.811v-2.02C12.811,14.909,9.038,13.964,7.156,13.964Zm6.464,0c-.234,0-.5.016-.784.04a3.409,3.409,0,0,1,1.592,2.787v2.02h4.848v-2.02C19.275,14.909,15.5,13.964,13.619,13.964Z" transform="translate(-1.5 -7.5)" fill="#f60" opacity="0.75"/>
</svg>
