<svg xmlns="http://www.w3.org/2000/svg" width="17.172" height="17.171" viewBox="0 0 17.172 17.171">
  <g id="_8f38ea7021f52d9c064bb5225ea9632b" data-name="8f38ea7021f52d9c064bb5225ea9632b" transform="translate(-10 -10.034)" opacity="0.5">
    <g id="Group_15479" data-name="Group 15479" transform="translate(10 10.034)">
      <path id="Path_11945" data-name="Path 11945" d="M746.277-501.917a1.742,1.742,0,0,0-1.194,1.224,1.642,1.642,0,0,0,1.67,1.939,1.662,1.662,0,0,0,1.506-1.506A1.636,1.636,0,0,0,746.277-501.917Z" transform="translate(-732.167 501.966)"/>
      <path id="Path_11946" data-name="Path 11946" d="M317.858-440.424a1.686,1.686,0,0,0-1.224,1.321,1.622,1.622,0,0,0,1.818,1.825A1.629,1.629,0,0,0,319.8-439.1,1.63,1.63,0,0,0,317.858-440.424Z" transform="translate(-311.24 441.543)"/>
      <path id="Path_11947" data-name="Path 11947" d="M592.147-440.723a.366.366,0,0,0-.124.124c-.074.134-.054.362.034.366a1.3,1.3,0,0,1,.231.252,1.606,1.606,0,0,0,.221.252,2.971,2.971,0,0,0,.332-.315c.275-.278.309-.325.309-.436a.278.278,0,0,0-.312-.288.284.284,0,0,0-.191.05c-.054.064-.138.064-.221,0A.24.24,0,0,0,592.147-440.723Z" transform="translate(-581.78 441.842)"/>
      <path id="Path_11948" data-name="Path 11948" d="M530.9-379.262a.366.366,0,0,0-.124.124c-.074.134-.054.362.034.366a1.293,1.293,0,0,1,.231.252,1.606,1.606,0,0,0,.221.252,4.111,4.111,0,0,0,.641-.681c0-.08-.241-.315-.352-.346-.084-.02-.111-.01-.191.091l-.1.114-.084-.111C531.085-379.319,531.021-379.332,530.9-379.262Z" transform="translate(-521.603 381.454)"/>
      <path id="Path_11949" data-name="Path 11949" d="M73.768-256.79a1.136,1.136,0,0,0-.513.376c-.057.07-.533,1.217-1.238,2.982l-1.147,2.868.017.245a1,1,0,0,0,.59.892c.151.067.2.07,1.922.08l1.768.01.01,2.3c.01,2.261.01,2.308.08,2.458a1.009,1.009,0,0,0,.476.49.871.871,0,0,0,.51.094.87.87,0,0,0,.51-.094,1.009,1.009,0,0,0,.476-.49c.07-.154.07-.174.07-3.156s0-3-.07-3.156a1.008,1.008,0,0,0-.476-.49l-.191-.094-1.231-.01-1.234-.01v-1.288l.208-.52c.111-.285.211-.527.218-.533s.278.252.607.574c.52.517.617.6.761.641l.168.054h-.443l-.446,0v.537h3.018v7.513h-.872v.537h2.147v-.537h-.738v-7.513h3.957v-.537h1.073v1.07l-1.768.01-1.771.01-.191.094a1.009,1.009,0,0,0-.476.49c-.07.154-.07.174-.07,3.156s0,3,.07,3.156a1.009,1.009,0,0,0,.476.49.87.87,0,0,0,.51.094.87.87,0,0,0,.51-.094,1.009,1.009,0,0,0,.476-.49c.07-.151.07-.2.08-2.458l.01-2.308H85.9l-.007-3.381c-.01-3.354-.01-3.377-.08-3.532a1.009,1.009,0,0,0-.476-.49.87.87,0,0,0-.51-.094.87.87,0,0,0-.51.094,1.008,1.008,0,0,0-.476.49c-.064.138-.07.228-.08.849l-.013.694-1.764.01c-1.717.01-1.771.013-1.922.08a1,1,0,0,0-.587.855,1.028,1.028,0,0,0,.714,1.157c.138.037-.037.044-1.264.044s-1.4-.007-1.264-.044a.994.994,0,0,0,.691-.724c.023-.107.037-.691.037-1.576v-1.409H76.243v1.187l-.812-.808c-.761-.755-.828-.812-1-.862A1.034,1.034,0,0,0,73.768-256.79Z" transform="translate(-69.803 261.145)"/>
      <path id="Path_11950" data-name="Path 11950" d="M10-129.164v5.366h.537v-4.293h3.757v4.293h.537v-4.83H10.537v-5.9H10Z" transform="translate(-10 140.968)"/>
      <path id="Path_11951" data-name="Path 11951" d="M718.663-131.578v2.952H714.37v4.83h.537v-4.293h3.756v4.293h.537V-134.53h-.537v2.952Z" transform="translate(-702.028 140.968)"/>
    </g>
  </g>
</svg>
