<svg xmlns="http://www.w3.org/2000/svg" xmlns:xlink="http://www.w3.org/1999/xlink" width="242" height="193.549" viewBox="0 0 242 193.549">
  <defs>
    <filter id="Ellipse_4" x="90.096" y="108.348" width="56.888" height="57.683" filterUnits="userSpaceOnUse">
      <feOffset dy="3" input="SourceAlpha"/>
      <feGaussianBlur stdDeviation="3" result="blur"/>
      <feFlood flood-opacity="0.161"/>
      <feComposite operator="in" in2="blur"/>
      <feComposite in="SourceGraphic"/>
    </filter>
  </defs>
  <g id="Group_15557" data-name="Group 15557" transform="translate(-86 -271.226)">
    <path id="Path_11965" data-name="Path 11965" d="M1477.259,809.951l.236-78.314a131.518,131.518,0,0,0-13.968.628,9.427,9.427,0,0,1-2.1.079,12.148,12.148,0,0,1-1.946,0h-.207l-21.031-.236c-.314,6.593-.549,14.832-.785,24.64l18.677-.314a11.408,11.408,0,0,1,8,3.217,11.583,11.583,0,0,1,3.453,8.162,11.656,11.656,0,0,1-11.535,11.614l-18.755.314c.079,12.634.393,22.207,1.1,28.877l.078,1.413a10.965,10.965,0,0,1-2.824,7.533,12.382,12.382,0,0,1-8.632,3.923,10.926,10.926,0,0,1-7.69-2.9,11.881,11.881,0,0,1-3.844-7.454c-1.02-11.222-1.492-24.563-1.492-40.021q0-32.017,1.883-49.28a13.547,13.547,0,0,1,4.081-8.318c2.354-1.962,4.395-3.138,6.2-3.374a32.558,32.558,0,0,1,7.848-1.1c3.767,0,7.14.079,10.122.156,3.532.079,8.761-.272,15.352-.272a8.479,8.479,0,0,1,1.026,0c7.223-1.14,17.9-1.219,28.44-1.219a198.653,198.653,0,0,1,29.27,1.883,11.459,11.459,0,0,1,9.81,11.3,8.254,8.254,0,0,1-.157,1.962,11.448,11.448,0,0,1-11.3,9.652,9.767,9.767,0,0,1-2.118-.235,135,135,0,0,0-13.891-.628l-.314,78.393a11.5,11.5,0,0,1-22.992-.079Zm1.805-16.243c0,6.121,0,8.867-.079,14.047a1.207,1.207,0,0,0,1.178,1.177,1.01,1.01,0,0,0,1.1-1.02l.157-14.2a1.177,1.177,0,0,0-2.354,0Zm-21.041-33.979a.994.994,0,0,0,.941,1.1,5.972,5.972,0,0,1,2.9,1.727,4.064,4.064,0,0,1,1.413,2.746,1.205,1.205,0,0,0,1.255,1.1c.706,0,1.1-.393,1.1-1.255a6.5,6.5,0,0,0-2.119-4.237,9.668,9.668,0,0,0-4.158-2.354C1458.493,758.553,1458.023,758.945,1458.023,759.729Zm-38.922-19.7-.314,5.571c0,.706.391,1.1,1.177,1.1a1.007,1.007,0,0,0,.785-.314c.156-.156.393-2.275.707-6.278a.992.992,0,0,0-1.1-1.1A1.142,1.142,0,0,0,1419.1,740.034Zm13.34-28.565c-6.042,1.02-9.731,3.611-11.144,7.69a43.512,43.512,0,0,0-1.962,14.126v1.8a1.231,1.231,0,0,0,1.1,1.334,1.174,1.174,0,0,0,.863-.314c.235-.235.393-1.49.393-3.609v-.628a35.138,35.138,0,0,1,1.727-11.927c1.177-3.217,4.316-5.336,9.416-6.278a.959.959,0,0,0,.707-.314,1.41,1.41,0,0,0,.236-.864.993.993,0,0,0-1.1-1.1Zm35,1.257.107.112L1472,712.8a1.171,1.171,0,0,0,1.1-1.019,1.214,1.214,0,0,0-1.1-1.256,21.589,21.589,0,0,0-2.354-.078l-2.9.078-2.218.035A11.756,11.756,0,0,1,1467.439,712.726Z" transform="translate(-1260.817 -379.021)" fill="#f60"/>
    <path id="Path_2722" data-name="Path 2722" d="M58.244,0h1.4l.135,0h.212q3.586.054,7.116.33L65.73,18.029c-2.473-.192-4.991-.29-7.486-.29V0Zm55.523,14.606q1.466.832,2.907,1.707h0l.109.066h0l.18.11h0l.287.176,0,0q2.052,1.264,4.045,2.612l-9.939,14.693c-2.056-1.391-4.192-2.717-6.349-3.94ZM154.88,54.693l.007.011.022.037.01.016.028.046.01.017.025.041.01.016.025.042.01.017.028.047.009.015.024.039.008.014.029.048.009.015.029.049.008.013.025.042.008.013.029.049.008.014.03.05,0,0,.03.05.007.013.029.05.008.013.026.044.006.01.029.05.008.014.029.049.007.012.026.044.006.011.03.05.008.013.03.051,0,0,.029.049.007.012.03.051.006.011.028.048,0,.007.03.051.008.014.029.049.007.012.024.042.008.013.028.049.009.015.029.05,0,.007.026.045.009.015.028.049.008.014.026.045.005.009.029.05.008.014.029.05.007.013.024.042.007.012.028.049.009.016.027.046.008.015.022.039.011.018.027.047.009.016.022.039.011.02.024.041.011.019.026.045.012.02.019.034.01.017.026.046.011.02.022.04.014.024.018.031.013.023.024.043.012.022.018.031.017.031.018.033.013.023.024.042.014.024.016.028.014.025.023.041.013.023.021.037.015.027.017.031.013.023.023.042.014.025.015.027.021.038.014.026.015.027.014.025.023.042.012.022.024.044.012.022.017.03.011.02.026.047.01.019.031.056.006.011.017.03.011.02.028.05.009.016.056.1.007.012.032.058.007.012.018.033.007.013.031.058.007.013.035.065,0,0,.018.034.006.01.033.062.005.009.057.105.005.01.035.064,0,.006.059.108,0,0,.1.185h0q.812,1.51,1.577,3.045l-15.875,7.916c-1.106-2.218-2.315-4.421-3.594-6.547l15.2-9.142Zm16.012,55.133c.021.831.032,1.658.035,2.493h0c0,.015,0,.029,0,.044v0c0,.011,0,.027,0,.039v.007c0,.011,0,.026,0,.037v.008c0,.011,0,.024,0,.035s0,.007,0,.01,0,.023,0,.035v.011c0,.011,0,.019,0,.03v.048s0,.009,0,.013v.091c0,.008,0,.013,0,.021v.045c0,.009,0,.018,0,.027v.018c0,.009,0,.019,0,.028s0,.012,0,.019,0,.018,0,.027,0,.012,0,.02,0,.017,0,.026,0,.015,0,.023,0,.016,0,.024,0,.018,0,.022,0,.017,0,.025,0,.015,0,.023,0,.016,0,.024,0,.015,0,.022,0,.016,0,.024,0,.016,0,.024,0,.015,0,.022,0,.016,0,.023,0,.016,0,.024v.024c0,.007,0,.015,0,.023s0,.015,0,.023,0,.016,0,.024,0,.015,0,.023,0,.016,0,.023,0,.014,0,.022,0,.016,0,.025,0,.016,0,.023,0,.015,0,.023,0,.015,0,.023,0,.016,0,.024,0,.015,0,.022,0,.016,0,.025,0,.013,0,.021,0,.017,0,.025,0,.018,0,.022,0,.017,0,.025,0,.016,0,.02,0,.018,0,.028,0,.012,0,.019,0,.019,0,.029,0,.009,0,.016v.029c0,.008,0,.011,0,.018s0,.022,0,.034v.012c0,.012,0,.024,0,.035s0,.008,0,.012c0,.031,0,.062,0,.093h0c0,.015,0,.031,0,.046s0,0,0,0,0,.027,0,.041,0,.006,0,.01,0,.025,0,.038v.007c0,.013,0,.025,0,.038s0,.008,0,.016,0,.021,0,.031,0,.01,0,.014v.094c0,.01,0,.02,0,.03v.018c0,.01,0,.02,0,.03s0,.011,0,.015,0,.021,0,.032,0,.01,0,.014,0,.022,0,.034,0,.009,0,.012,0,.022,0,.033v.1s0,.007,0,.011,0,.025,0,.037v.009c0,.012,0,.025,0,.037s0,.006,0,.01,0,.026,0,.04,0,0,0,.006,0,.028,0,.043v0c0,.015,0,.029,0,.044v0c0,.014,0,.028,0,.042v0c0,.015,0,.03,0,.045h0q-.037,1.858-.134,3.7l-17.715-.931q.133-2.523.133-5.079,0-1.212-.03-2.416Zm-28.838,47.519L157.7,165.7q-.366.686-.741,1.364h0l-.04.072,0,0-.06.108,0,.007-.037.066,0,.005-.02.035,0,0-.035.064-.008.015-.032.058-.006.01-.018.032-.008.015-.029.053-.009.016-.056.1-.009.016-.029.052-.009.016-.018.031-.007.012-.032.056-.009.015-.031.055-.007.013-.018.032-.008.015-.03.053-.009.015-.03.053-.009.016-.017.03-.01.018-.029.051-.009.015-.018.031-.006.011-.033.058-.008.014-.032.057-.007.012-.019.034,0,0-.037.065-.005.009-.06.1-.005.01-.034.059-.007.012-.06.1,0,.006-.1.18h0q-1.26,2.176-2.611,4.286l-14.94-9.564C139.615,161.7,140.886,159.531,142.054,157.345ZM109.14,192.851l9.525,14.965q-.685.436-1.374.861h0l-.176.108-.01.006-.1.062-.012.007-.052.032-.017.011-.029.018-.037.023-.027.017-.023.014-.038.023-.028.017-.023.014-.043.026-.019.011-.034.021-.017.01-.046.028-.017.01-.048.029-.009.006-.045.027-.012.007-.051.031-.01.006-.053.032h0l-.055.033-.008,0-.055.033,0,0-.115.069,0,0q-2.494,1.494-5.07,2.862l-8.317-15.668C104.874,195.449,107.046,194.184,109.14,192.851ZM63.073,207.508l.885,17.717q-2.04.1-4.1.131H57.749l-.294,0h0q-.715,0-1.428-.019h-.087c-.284-.006-.565-.012-.848-.02l.487-17.732C58.072,207.661,60.592,207.632,63.073,207.508ZM9.182,193.989c2.123,1.285,4.323,2.5,6.538,3.611L7.762,213.455q-2.576-1.293-5.075-2.712h0l-.058-.033,0,0-.114-.065-.009,0-.055-.031h0l-.052-.029-.011-.006-.051-.029-.013-.007-.05-.029-.007,0-.048-.027-.015-.009-.048-.028-.016-.009L2.1,210.4l-.015-.009-.045-.026-.022-.013-.035-.02-.033-.019-.022-.013-.048-.028-.018-.01-.031-.018-.014-.008-.056-.033-.011-.006-.1-.06-.008,0-.067-.039h0c-.523-.305-1.048-.617-1.566-.93Z" transform="translate(103.867 464.774) rotate(-96)" fill="#0015ff"/>
    <path id="Path_2726" data-name="Path 2726" d="M0,16.936l99.625,90.145L22.925,6.731,8.774,0Z" transform="translate(193.868 412.733) rotate(-73)" fill="#0015ff"/>
    <path id="Path_2727" data-name="Path 2727" d="M0,56.069,7.567,0l7.954,54.517Z" transform="matrix(0.259, -0.966, 0.966, 0.259, 137.569, 395.743)" fill="#0015ff"/>
    <g transform="matrix(1, 0, 0, 1, 86, 271.23)" filter="url(#Ellipse_4)">
      <ellipse id="Ellipse_4-2" data-name="Ellipse 4" cx="16.32" cy="15.757" rx="16.32" ry="15.757" transform="matrix(0.26, -0.97, 0.97, 0.26, 99.1, 145.88)" fill="#0015ff"/>
    </g>
    <ellipse id="Ellipse_5" data-name="Ellipse 5" cx="4.502" cy="4.502" rx="4.502" ry="4.502" transform="matrix(0.259, -0.966, 0.966, 0.259, 199.171, 408.055)" fill="#fff"/>
  </g>
</svg>
