<svg xmlns="http://www.w3.org/2000/svg" width="16.827" height="16.82" viewBox="0 0 16.827 16.82">
  <g id="_-Product-Icons" data-name="ðŸ”-Product-Icons" opacity="0.5">
    <g id="ic_fluent_status_24_filled">
      <path id="_-Color" data-name="ðŸŽ¨-Color" d="M10.968,2.886a7.943,7.943,0,0,1,3.113.631L13.058,4.549a6.633,6.633,0,1,0,4.233,4.273l1.031-1.04a7.969,7.969,0,1,1-7.354-4.9Zm8.112-.378.123.114h0a2.132,2.132,0,0,1,.007,3.008l-5.98,6.034a.886.886,0,0,1-.363.221L9.017,13.1a.177.177,0,0,1-.222-.222l1.214-3.853a.886.886,0,0,1,.216-.357l5.983-6.037a2.113,2.113,0,0,1,2.872-.12Z" transform="translate(-3 -2.002)" fill="#212121"/>
    </g>
  </g>
</svg>
