<svg xmlns="http://www.w3.org/2000/svg" xmlns:xlink="http://www.w3.org/1999/xlink" width="52" height="52" viewBox="0 0 52 52">
  <defs>
    <filter id="Ellipse_833" x="0" y="0" width="52" height="52" filterUnits="userSpaceOnUse">
      <feOffset dy="3" input="SourceAlpha"/>
      <feGaussianBlur stdDeviation="3" result="blur"/>
      <feFlood flood-opacity="0.161"/>
      <feComposite operator="in" in2="blur"/>
      <feComposite in="SourceGraphic"/>
    </filter>
    <filter id="Icon_ionic-md-notifications" x="10.654" y="9.5" width="30.692" height="33" filterUnits="userSpaceOnUse">
      <feOffset dy="3" input="SourceAlpha"/>
      <feGaussianBlur stdDeviation="3" result="blur-2"/>
      <feFlood flood-opacity="0.161"/>
      <feComposite operator="in" in2="blur-2"/>
      <feComposite in="SourceGraphic"/>
    </filter>
  </defs>
  <g id="Group_15535" data-name="Group 15535" transform="translate(-334 -41)">
    <g transform="matrix(1, 0, 0, 1, 334, 41)" filter="url(#Ellipse_833)">
      <circle id="Ellipse_833-2" data-name="Ellipse 833" cx="17" cy="17" r="17" transform="translate(9 6)" fill="#fff"/>
    </g>
    <g transform="matrix(1, 0, 0, 1, 334, 41)" filter="url(#Icon_ionic-md-notifications)">
      <path id="Icon_ionic-md-notifications-2" data-name="Icon ionic-md-notifications" d="M11.971,18.375a1.5,1.5,0,0,0,1.493-1.5H10.478A1.5,1.5,0,0,0,11.971,18.375Zm4.853-4.5V9.75a4.861,4.861,0,0,0-3.733-4.725V4.5a1.12,1.12,0,1,0-2.24,0v.525A4.861,4.861,0,0,0,7.118,9.75v4.125l-1.493,1.5v.75H18.317v-.75Z" transform="translate(14.03 12.12)" opacity="0.5"/>
    </g>
  </g>
</svg>
