<svg xmlns="http://www.w3.org/2000/svg" width="93.289" height="91.231" viewBox="0 0 93.289 91.231">
  <path id="Icon_material-notifications-active" data-name="Icon material-notifications-active" d="M29.011,11.142l-6.69-6.69A48.773,48.773,0,0,0,3.045,41.178H12.4A39.512,39.512,0,0,1,29.011,11.142ZM86.977,41.178h9.357A49.071,49.071,0,0,0,77.059,4.452l-6.643,6.69A39.745,39.745,0,0,1,86.977,41.178ZM77.76,43.517c0-14.363-7.673-26.387-21.053-29.568V10.768a7.018,7.018,0,0,0-14.035,0v3.181C29.245,17.13,21.619,29.107,21.619,43.517V66.91l-9.357,9.357v4.678H87.117V76.267L77.76,66.91ZM49.69,94.981a8.2,8.2,0,0,0,1.871-.187A9.493,9.493,0,0,0,58.3,89.273a9.393,9.393,0,0,0,.7-3.649H40.286A9.425,9.425,0,0,0,49.69,94.981Z" transform="translate(-3.045 -3.75)" fill="#0015ff" opacity="0.5"/>
</svg>
