<svg xmlns="http://www.w3.org/2000/svg" width="16.1" height="20.1" viewBox="0 0 16.1 20.1">
  <path id="Icon_material-lock-outline" data-name="Icon material-lock-outline" d="M14.05,16.814A1.917,1.917,0,1,0,12.038,14.9,1.971,1.971,0,0,0,14.05,16.814ZM20.087,8.2H19.081V6.286A4.915,4.915,0,0,0,14.05,1.5,4.915,4.915,0,0,0,9.019,6.286V8.2H8.013A1.971,1.971,0,0,0,6,10.114v9.571A1.971,1.971,0,0,0,8.013,21.6H20.087A1.971,1.971,0,0,0,22.1,19.686V10.114A1.971,1.971,0,0,0,20.087,8.2ZM10.931,6.286A3.049,3.049,0,0,1,14.05,3.319a3.049,3.049,0,0,1,3.119,2.967V8.2H10.931Zm9.157,13.4H8.013V10.114H20.087Z" transform="translate(-6 -1.5)" opacity="0.5"/>
</svg>
