<svg xmlns="http://www.w3.org/2000/svg" width="16.875" height="18.484" viewBox="0 0 16.875 18.484">
  <g id="Layer_36" data-name="Layer 36" transform="translate(-11 -5.995)">
    <path id="Path_11937" data-name="Path 11937" d="M25.424,7.6a2.009,2.009,0,0,0-3.937,0h-3.7a2.009,2.009,0,0,0-3.938,0H11V24.479H27.875V7.6Zm-1.969-.8A1.205,1.205,0,1,1,22.25,8.006,1.205,1.205,0,0,1,23.455,6.8Zm-7.634,0a1.205,1.205,0,1,1-1.205,1.205A1.205,1.205,0,0,1,15.821,6.8ZM13.853,8.408a2.009,2.009,0,0,0,3.938,0h3.7a2.009,2.009,0,0,0,3.938,0h1.647v2.411H11.8V8.408ZM11.8,21.028l2.648,2.648H11.8Zm3.781,2.648L11.8,19.895V11.622H27.071V23.676Z" opacity="0.5"/>
    <path id="Path_11938" data-name="Path 11938" d="M27.468,30.177l-2.093-1.744-.514.619,2.728,2.274,3.07-3.946-.635-.49Z" transform="translate(-8.291 -12.5)" opacity="0.5"/>
  </g>
</svg>
