<svg xmlns="http://www.w3.org/2000/svg" width="119.946" height="148.966" viewBox="0 0 119.946 148.966">
  <g id="data-privacy-svgrepo-com_1_" data-name="data-privacy-svgrepo-com (1)" transform="translate(0.2 0.2)" opacity="0.5">
    <g id="data--privacy_1_" transform="translate(0)">
      <path id="Path_11935" data-name="Path 11935" d="M63.413,149.205A59.843,59.843,0,0,1,3.64,89.432V26.564a1.74,1.74,0,0,1,1.741-1.741,80.962,80.962,0,0,0,56.8-23.672,1.737,1.737,0,0,1,2.462,0,80.942,80.942,0,0,0,56.8,23.672,1.74,1.74,0,0,1,1.741,1.741V89.432A59.843,59.843,0,0,1,63.413,149.205ZM7.122,28.286V89.432a56.291,56.291,0,1,0,112.583,0V28.286A84.523,84.523,0,0,1,63.413,4.821,84.523,84.523,0,0,1,7.122,28.286ZM89.334,103.94H85.852V96.686a22.021,22.021,0,0,0-16.6-21.37,1.743,1.743,0,0,1-.31-3.25,12.973,12.973,0,0,0,7.235-11.65,12.767,12.767,0,0,0-25.534,0,12.98,12.98,0,0,0,7.24,11.65,1.741,1.741,0,0,1-.3,3.25,22.029,22.029,0,0,0-16.607,21.37v7.254H37.487V96.686A25.346,25.346,0,0,1,53.171,73.154a16.573,16.573,0,0,1-6.006-12.738,16.249,16.249,0,0,1,32.5,0,16.562,16.562,0,0,1-6.011,12.738A25.346,25.346,0,0,1,89.334,96.686Z" transform="translate(-3.64 -0.639)" fill="#0015ff" stroke="#0015ff" stroke-width="0.4"/>
    </g>
  </g>
</svg>
