<svg xmlns="http://www.w3.org/2000/svg" width="14.42" height="17.848" viewBox="0 0 14.42 17.848">
  <g id="data-privacy-svgrepo-com_1_" data-name="data-privacy-svgrepo-com (1)" transform="translate(0.2 0.224)" opacity="0.5">
    <g id="data--privacy_1_" transform="translate(0)">
      <path id="Path_11935" data-name="Path 11935" d="M10.65,18.063a7.018,7.018,0,0,1-7.01-7.01V3.68a.2.2,0,0,1,.2-.2A9.5,9.5,0,0,0,10.506.7a.2.2,0,0,1,.289,0,9.493,9.493,0,0,0,6.661,2.776.2.2,0,0,1,.2.2v7.373A7.018,7.018,0,0,1,10.65,18.063ZM4.048,3.882v7.171a6.6,6.6,0,1,0,13.2,0V3.882a9.913,9.913,0,0,1-6.6-2.752A9.913,9.913,0,0,1,4.048,3.882Zm9.642,8.873h-.408V11.9A2.583,2.583,0,0,0,11.335,9.4a.2.2,0,0,1-.036-.381,1.521,1.521,0,0,0,.848-1.366,1.5,1.5,0,0,0-2.995,0A1.522,1.522,0,0,0,10,9.016a.2.2,0,0,1-.036.381A2.584,2.584,0,0,0,8.018,11.9v.851H7.61V11.9a2.973,2.973,0,0,1,1.839-2.76,1.944,1.944,0,0,1-.7-1.494,1.906,1.906,0,0,1,3.811,0,1.942,1.942,0,0,1-.7,1.494A2.973,2.973,0,0,1,13.69,11.9Z" transform="translate(-3.64 -0.639)" stroke="#000" stroke-width="0.4"/>
    </g>
  </g>
</svg>
