<svg xmlns="http://www.w3.org/2000/svg" width="32.004" height="27.919" viewBox="0 0 32.004 27.919">
  <g id="send-svgrepo-com_8_" data-name="send-svgrepo-com (8)" transform="translate(0 -32.68)">
    <g id="Group_9499" data-name="Group 9499" transform="translate(0 32.68)">
      <path id="Path_11077" data-name="Path 11077" d="M31.85,32.825a.51.51,0,0,0-.541-.11L.326,44.747a.511.511,0,0,0-.066.921l6.421,3.618L8.909,60.179a.51.51,0,0,0,.09.21l.012.016a.511.511,0,0,0,.32.188l.05.005h.032a.508.508,0,0,0,.268-.077.5.5,0,0,0,.075-.057l.02-.019L14.61,55.6a.511.511,0,1,0-.723-.721l-3.8,3.806.82-7.026,11.6,6.364a.51.51,0,0,0,.365.049l.037-.01a.51.51,0,0,0,.286-.231l.009-.017a.511.511,0,0,0,.032-.075l8.74-24.376A.511.511,0,0,0,31.85,32.825ZM1.7,45.309l25.324-9.835L7.116,48.359Zm8.469,5.14a.511.511,0,0,0-.122.142l-.012.022a.509.509,0,0,0-.055.187l-.708,6.067L7.7,49.195,24.9,38.066Zm12.3,6.392L11.391,50.758,30.375,34.8Z" transform="translate(0 -32.68)" fill="#f60"/>
    </g>
  </g>
</svg>
