<svg xmlns="http://www.w3.org/2000/svg" width="15.998" height="12.799" viewBox="0 0 15.998 12.799">
  <path id="Icon_awesome-user-edit" data-name="Icon awesome-user-edit" d="M5.6,6.4A3.2,3.2,0,1,0,2.4,3.2,3.2,3.2,0,0,0,5.6,6.4Zm2.24.8H7.422a4.352,4.352,0,0,1-3.645,0H3.36A3.361,3.361,0,0,0,0,10.559V11.6a1.2,1.2,0,0,0,1.2,1.2H8.072a1.2,1.2,0,0,1-.065-.532l.17-1.522.03-.277.2-.2,1.932-1.932A3.326,3.326,0,0,0,7.839,7.2Zm1.132,3.632L8.8,12.357a.4.4,0,0,0,.44.44l1.522-.17,3.447-3.447L12.419,7.387,8.972,10.832Zm6.852-4.11-.947-.947a.6.6,0,0,0-.845,0l-.945.945-.1.1,1.795,1.792,1.045-1.045a.6.6,0,0,0,0-.847Z" opacity="0.5"/>
</svg>
