<svg xmlns="http://www.w3.org/2000/svg" width="14.517" height="14.517" viewBox="0 0 14.517 14.517">
  <path id="Icon_awesome-user-circle" data-name="Icon awesome-user-circle" d="M7.259.563a7.259,7.259,0,1,0,7.259,7.259A7.257,7.257,0,0,0,7.259.563Zm0,2.81A2.576,2.576,0,1,1,4.683,5.948,2.576,2.576,0,0,1,7.259,3.372Zm0,10.069a5.609,5.609,0,0,1-4.288-2,3.263,3.263,0,0,1,2.883-1.75.716.716,0,0,1,.208.032,3.875,3.875,0,0,0,1.2.2,3.861,3.861,0,0,0,1.2-.2.716.716,0,0,1,.208-.032,3.263,3.263,0,0,1,2.883,1.75A5.609,5.609,0,0,1,7.259,13.441Z" transform="translate(0 -0.563)" opacity="0.5"/>
</svg>
